<?xml version="1.0" standalone="no"?><!DOCTYPE svg PUBLIC "-//W3C//DTD SVG 1.1//EN" "http://www.w3.org/Graphics/SVG/1.1/DTD/svg11.dtd"><svg t="1619201918363" class="icon" viewBox="0 0 1024 1024" version="1.1" xmlns="http://www.w3.org/2000/svg" p-id="1128" xmlns:xlink="http://www.w3.org/1999/xlink" width="200" height="200"><defs><style type="text/css"></style></defs><path d="M697.173333 85.333333C841.770667 85.333333 938.666667 186.88 938.666667 337.92v348.586667c0 150.613333-96.896 252.16-241.493334 252.16H327.253333C182.613333 938.666667 85.333333 837.12 85.333333 686.506667V337.92C85.333333 186.88 182.613333 85.333333 327.253333 85.333333z m-162.56 229.546667a33.024 33.024 0 0 0-45.226666 0l-160 160.853333c-12.373333 12.373333-12.373333 32.853333 0 45.226667 12.8 12.373333 32.853333 12.373333 45.653333 0l104.96-105.813333v270.933333c0 17.92 14.506667 32 32 32 17.92 0 32-14.08 32-32V415.146667l105.386667 105.813333c5.973333 5.973333 14.506667 9.386667 22.613333 9.386667 8.064 0 16.213333-3.413333 22.613333-9.386667 12.373333-12.373333 12.373333-32.853333 0-45.226667z" fill="#d81e06" p-id="1129"></path></svg>